<?xml version="1.0" encoding="utf-8"?>
<!-- Generator: Adobe Illustrator 19.0.0, SVG Export Plug-In . SVG Version: 6.00 Build 0)  -->
<svg version="1.1" id="Layer_1" xmlns="http://www.w3.org/2000/svg" xmlns:xlink="http://www.w3.org/1999/xlink" x="0px" y="0px"
	 viewBox="-447 355 106 48" style="enable-background:new -447 355 106 48;" xml:space="preserve">
<style type="text/css">
	.st0{fill:#FF6933;}
	.st1{fill:#666666;}
	.st2{fill:#B34A24;}
	.st3{fill:#FFFFFF;}
	.st4{fill:#404040;}
</style>
<rect x="-399" y="355" class="st0" width="48" height="48"/>
<path class="st1" d="M-342.9,360.4c-1.2-0.7-2.1-1.3-2.9-1.9c-0.8-0.7-1.7-1.4-2.3-2.2c-0.2-0.2-0.4-0.4-0.7-0.4
	c-0.2,0-0.4,0.1-0.6,0.2c-0.2,0.1-0.3,0.3-0.4,0.5c-0.1,0.2,0,0.5,0.2,0.8c0.8,1.1,1.9,1.9,2.7,2.6c0.6,0.4,1.1,0.8,1.7,1.1
	c-0.5,0.3-1.1,0.7-1.7,1.1c-0.8,0.6-1.9,1.4-2.7,2.6c-0.2,0.2-0.2,0.5-0.2,0.8c0,0.2,0.2,0.4,0.4,0.5c0.2,0.1,0.4,0.2,0.6,0.2
	c0.3,0,0.6-0.1,0.7-0.4c0.6-0.9,1.5-1.6,2.3-2.2c0.7-0.6,1.6-1.2,2.9-1.9l1.3-0.6L-342.9,360.4z"/>
<g>
	<g>
		<rect id="XMLID_12_" x="-387" y="370" class="st2" width="26" height="3"/>
		<rect id="XMLID_11_" x="-387" y="378" class="st2" width="26" height="3"/>
		<rect id="XMLID_10_" x="-387" y="386" class="st2" width="26" height="3"/>
	</g>
	<g>
		<rect id="XMLID_3_" x="-388" y="369" class="st3" width="26" height="3"/>
		<rect id="XMLID_2_" x="-388" y="377" class="st3" width="26" height="3"/>
		<rect id="XMLID_1_" x="-388" y="385" class="st3" width="26" height="3"/>
	</g>
</g>
<g>
	<rect id="XMLID_127_" x="-436" y="369" class="st4" width="26" height="3"/>
	<rect id="XMLID_126_" x="-436" y="377" class="st4" width="26" height="3"/>
	<rect id="XMLID_125_" x="-436" y="385" class="st4" width="26" height="3"/>
</g>
<g>
	<g>
		<rect id="XMLID_9_" x="-387" y="370" class="st2" width="26" height="3"/>
		<rect id="XMLID_8_" x="-387" y="378" class="st2" width="26" height="3"/>
		<rect id="XMLID_7_" x="-387" y="386" class="st2" width="26" height="3"/>
	</g>
	<g>
		<rect id="XMLID_6_" x="-388" y="369" class="st3" width="26" height="3"/>
		<rect id="XMLID_5_" x="-388" y="377" class="st3" width="26" height="3"/>
		<rect id="XMLID_4_" x="-388" y="385" class="st3" width="26" height="3"/>
	</g>
</g>
</svg>
