<?xml version="1.0" encoding="utf-8"?>
<!-- Generator: Adobe Illustrator 22.0.1, SVG Export Plug-In . SVG Version: 6.00 Build 0)  -->
<svg version="1.1" id="Layer_1" xmlns="http://www.w3.org/2000/svg" xmlns:xlink="http://www.w3.org/1999/xlink" x="0px" y="0px"
	 viewBox="0 0 360 360" style="enable-background:new 0 0 360 360;" xml:space="preserve">
<style type="text/css">
	.st0{fill:#595959;}
	.st1{fill:#7A2F8F;}
	.st2{fill:#EB582A;}
	.st3{fill:#FFFFFF;}
	.st4{fill:#CCCCCC;}
</style>
<title>Artboard 1</title>
<path class="st0" d="M113.1,253c-3.3-0.3-5.9-2.9-6.2-6.2l16.2-16.2l-0.6-1.1c-1.9-3.3-2.9-7.1-2.9-10.9c0-12,9.7-21.7,21.7-21.7
	c12,0,21.7,9.7,21.7,21.7c0,12-9.7,21.7-21.7,21.7c0,0,0,0,0,0l0,0c-3.8,0-7.6-1-10.9-2.9l-1.1-0.6L113.1,253z M141.4,202.2
	c-9.1,0-16.5,7.4-16.5,16.5s7.4,16.5,16.5,16.5s16.5-7.4,16.5-16.5l0,0l0,0C157.9,209.6,150.5,202.2,141.4,202.2z"/>
<path class="st0" d="M15,111v39h60v-39H15z M69,145H21v-29h48V145z"/>
<polygon class="st0" points="54.5,167 35.6,167 39.4,153 50.7,153 "/>
<polygon class="st1" points="33.7,130.3 40.3,123.6 36.5,119.9 26.1,130.3 36.5,140.6 40.3,136.9 "/>
<polygon class="st1" points="56.4,130.3 49.8,136.9 53.5,140.6 63.9,130.3 53.5,119.9 49.8,123.6 "/>
<polygon class="st2" points="113,32 113,74 132,74 132,62 140,62 140,74 159,74 159,32 "/>
<polygon class="st0" points="160.8,29 111,29 111,32 161,32 "/>
<path class="st0" d="M141.4,12.1h9.3V20c0,2.6-2.1,4.7-4.7,4.7s-4.7-2.1-4.7-4.7c0,0,0,0,0,0v0L141.4,12.1L141.4,12.1z"/>
<polygon class="st0" points="152,12.6 140,12.6 146,8.4 "/>
<rect x="145.1" y="23.3" class="st0" width="1.9" height="6.1"/>
<polygon class="st0" points="153.5,29.3 151.6,29.3 148.8,20 150.7,20 "/>
<polygon class="st0" points="138.9,30.4 140.8,30.4 143.3,20 141.4,20 "/>
<rect x="140" y="18.4" class="st0" width="12.1" height="2.8"/>
<rect x="117" y="36" class="st3" width="4" height="3"/>
<rect x="123" y="36" class="st3" width="4" height="3"/>
<rect x="117" y="41" class="st3" width="4" height="3"/>
<rect x="123" y="41" class="st3" width="4" height="3"/>
<rect x="131" y="36" class="st3" width="4" height="3"/>
<rect x="137" y="36" class="st3" width="4" height="3"/>
<rect x="131" y="41" class="st3" width="4" height="3"/>
<rect x="137" y="41" class="st3" width="4" height="3"/>
<rect x="145" y="36" class="st3" width="4" height="3"/>
<rect x="151" y="36" class="st3" width="4" height="3"/>
<rect x="145" y="41" class="st3" width="4" height="3"/>
<rect x="151" y="41" class="st3" width="4" height="3"/>
<rect x="117" y="49" class="st3" width="4" height="3"/>
<rect x="123" y="49" class="st3" width="4" height="3"/>
<rect x="117" y="54" class="st3" width="4" height="3"/>
<rect x="123" y="54" class="st3" width="4" height="3"/>
<rect x="131" y="49" class="st3" width="4" height="3"/>
<rect x="137" y="49" class="st3" width="4" height="3"/>
<rect x="131" y="54" class="st3" width="4" height="3"/>
<rect x="137" y="54" class="st3" width="4" height="3"/>
<rect x="145" y="49" class="st3" width="4" height="3"/>
<rect x="151" y="49" class="st3" width="4" height="3"/>
<rect x="145" y="54" class="st3" width="4" height="3"/>
<rect x="151" y="54" class="st3" width="4" height="3"/>
<rect x="117" y="62" class="st3" width="4" height="3"/>
<rect x="123" y="62" class="st3" width="4" height="3"/>
<rect x="117" y="67" class="st3" width="4" height="3"/>
<rect x="123" y="67" class="st3" width="4" height="3"/>
<rect x="145" y="62" class="st3" width="4" height="3"/>
<rect x="151" y="62" class="st3" width="4" height="3"/>
<rect x="145" y="67" class="st3" width="4" height="3"/>
<rect x="151" y="67" class="st3" width="4" height="3"/>
<path class="st0" d="M204.5,161.9c-0.6,0.6-1.4,1-2.2,1.2C203.1,162.9,203.9,162.5,204.5,161.9z"/>
<path class="st0" d="M200.4,163.2c-0.1,0-0.1,0-0.2-0.1C200.2,163.2,200.3,163.2,200.4,163.2z"/>
<path class="st1" d="M245.8,162c1.8,1.7,4.6,1.7,6.3-0.1c1.7-1.7,1.7-4.5,0-6.2l-21.1-21l-6.3,6.3L245.8,162z M247.7,157.7
	c0.7-0.7,1.9-0.7,2.6,0c0.7,0.7,0.7,1.9,0,2.6c-0.7,0.7-1.9,0.7-2.6,0C247,159.6,247,158.4,247.7,157.7z"/>
<path class="st1" d="M219.2,122.9c1.8-4.3,0.8-9.4-2.5-12.7c-3.1-3.1-7.6-4.2-11.8-2.9c-0.4,0.1-0.6,0.5-0.5,0.8
	c0,0.1,0.1,0.2,0.2,0.3l7.1,7.1c0.5,0.5,0.5,1.3,0,1.8l0,0l-4.5,4.5c-0.5,0.5-1.3,0.5-1.8,0l0,0l-7.1-7.1c-0.3-0.2-0.7-0.2-1,0.1
	c-0.1,0.1-0.1,0.1-0.1,0.2c-1.9,6.1,1.5,12.7,7.6,14.6c2.6,0.8,5.5,0.7,8-0.3l6,6l6.3-6.3L219.2,122.9z"/>
<path class="st0" d="M253.2,110.3l-3.6-3.6l-8.9,5.3l-0.6,4.2l0.3,0.3l-28.3,28.3l-1.8-1.8L198,155.4c-1.8,1.8-1.8,4.7,0,6.5l0,0
	l0,0c0.4,0.4,0.9,0.8,1.5,1h0.1c0.2,0.1,0.4,0.1,0.6,0.2c0.1,0,0.1,0,0.2,0.1h1.7c0.1,0,0.1,0,0.2-0.1c0.8-0.2,1.6-0.6,2.2-1.2
	l12.4-12.4l-1.8-1.8l28.3-28.3l0.3,0.3l4.2-0.6L253.2,110.3z"/>
<path class="st0" d="M341.1,143.1c0,0-7.5,17.9-26.1,17.9s-26.1-17.9-26.1-17.9s13.4,3.3,25.7,3.3
	C327.1,146.4,341.1,143.1,341.1,143.1z"/>
<path class="st1" d="M345.5,123.6c-13.7-4.2-24.4-14.7-30.3-14.7s-16.6,10.4-30.3,14.7c-1.8,0.5-2.9,2.4-2.4,4.2
	c0.1,0.4,0.2,0.7,0.4,1c2.9,3.9,6.2,4.2,6.2,8.8c8.6,2,17.3,3.1,26.1,3.3c8.8-0.2,17.5-1.3,26.1-3.3c0-4.6,3.3-4.9,5.9-9.1
	c1-1.6,0.5-3.7-1.1-4.6C345.9,123.8,345.7,123.7,345.5,123.6L345.5,123.6z M321,134.2l-5.5-2.7l-5.5,2.7l0.9-6.1l-4.3-4.4l6-1
	l2.8-5.4l2.8,5.4l6,1l-4.3,4.4L321,134.2z"/>
<path class="st1" d="M53.1,217l-10.8,13l-5.1-5.1c-0.7-0.7-5.2,3.7-4.4,4.4l9.5,9.5l15.3-17.4C58.3,220.8,53.9,216.3,53.1,217z"/>
<path class="st0" d="M60.7,255H29.3c-5.1,0-9.3-4.2-9.3-9.3v-38.4c0-5.1,4.2-9.3,9.3-9.3h2.5c1.1,0,2,0.9,2,2s-0.9,2-2,2h-2.5
	c-2.9,0-5.3,2.4-5.3,5.3v38.4c0,2.9,2.4,5.3,5.3,5.3h31.4c2.9,0,5.3-2.4,5.3-5.3v-38.4c0-2.9-2.4-5.3-5.3-5.3h-2.5c-1.1,0-2-0.9-2-2
	s0.9-2,2-2h2.5c5.1,0,9.3,4.2,9.3,9.3v38.4C70,250.8,65.8,255,60.7,255z"/>
<path class="st0" d="M51,208H39c-2.2,0-4-1.8-4-4v-6h20v6C55,206.2,53.2,208,51,208z"/>
<path class="st0" d="M45,203.5c-2.7,0-4.9-2.3-4.9-5s2.3-4.9,5-4.9c2.7,0,4.9,2.3,4.9,5C50,201.3,47.8,203.5,45,203.5L45,203.5z
	 M45,195.5c-1.7,0-3,1.3-3,3s1.3,3,3,3s3-1.3,3-3c0-1.6-1.3-3-2.9-3c0,0,0,0,0,0H45z"/>
<path class="st0" d="M61,74H29c-4.4,0-8-3.6-8-8V24c0-4.4,3.6-8,8-8h32c4.4,0,8,3.6,8,8v42C69,70.4,65.4,74,61,74z M29,20
	c-2.2,0-4,1.8-4,4v42c0,2.2,1.8,4,4,4h32c2.2,0,4-1.8,4-4V24c0-2.2-1.8-4-4-4H29z"/>
<path class="st0" d="M60,63H30c-0.5,0-1-0.4-1-0.9c0,0,0-0.1,0-0.1c0-0.6,0.4-1,1-1h30c0.5,0,1,0.4,1,0.9c0,0,0,0.1,0,0.1
	C61,62.6,60.6,63,60,63z"/>
<path class="st0" d="M60,58H30c-0.5,0-1-0.4-1-0.9c0,0,0-0.1,0-0.1c0-0.6,0.4-1,1-1h30c0.5,0,1,0.4,1,0.9c0,0,0,0.1,0,0.1
	C61,57.6,60.6,58,60,58z"/>
<path class="st0" d="M60,53H30c-0.5,0-1-0.4-1-0.9c0,0,0-0.1,0-0.1c0-0.6,0.4-1,1-1h30c0.5,0,1,0.4,1,0.9c0,0,0,0.1,0,0.1
	C61,52.6,60.6,53,60,53z"/>
<path class="st0" d="M60,48H30c-0.5,0-1-0.4-1-0.9c0,0,0-0.1,0-0.1c0-0.6,0.4-1,1-1h30c0.5,0,1,0.4,1,0.9c0,0,0,0.1,0,0.1
	C61,47.6,60.6,48,60,48z"/>
<path class="st0" d="M42.8,28.5c0.1,0.1,0.1,0.2,0.2,0.3c0.5-1.6,0.4-2.2,0.2-2.3c0-0.1-0.2-0.3-0.7-0.2c-0.6,0-1.2,0.2-1.8,0.5
	C41.5,27.2,42.2,27.8,42.8,28.5z"/>
<path class="st0" d="M30.2,28.5c-0.1,0.1-0.1,0.2-0.2,0.3c-0.5-1.6-0.4-2.2-0.2-2.3c0-0.1,0.2-0.3,0.7-0.2c0.6,0,1.2,0.2,1.8,0.5
	C31.5,27.2,30.8,27.8,30.2,28.5z"/>
<path class="st2" d="M36.5,26c-3,0-5.9,2.1-7.5,5.5V40h15v-8.5C42.4,28.1,39.5,26,36.5,26z M36.5,36.5c-2.1,0-3.7-1.7-3.7-3.7v-0.1
	c0-2.1,1.7-3.7,3.8-3.7c2.1,0,3.7,1.7,3.7,3.8C40.3,34.9,38.6,36.5,36.5,36.5z"/>
<path class="st0" d="M36.5,29.2c-1.9-0.1-3.5,1.5-3.6,3.4c-0.1,1.9,1.5,3.5,3.4,3.6c1.9,0.1,3.5-1.5,3.6-3.4c0,0,0-0.1,0-0.1
	C39.9,30.8,38.4,29.2,36.5,29.2 M36.5,37.1c-2.4,0.1-4.4-1.9-4.5-4.3c-0.1-2.4,1.9-4.4,4.3-4.5c2.4-0.1,4.4,1.9,4.5,4.3
	c0,0,0,0.1,0,0.1C40.8,35.1,38.9,37.1,36.5,37.1"/>
<path class="st0" d="M36.5,31.7c-0.3,0-0.6,0.2-0.8,0.4c0.2,0,0.4,0.1,0.4,0.2s-0.2,0.3-0.5,0.3v0.1c0,0.6,0.4,1,1,1
	c0.5,0,1-0.4,1-0.9c0,0,0-0.1,0-0.1C37.5,32.1,37.1,31.7,36.5,31.7z"/>
<path class="st0" d="M60,37H48c-0.5,0-1-0.4-1-0.9c0,0,0-0.1,0-0.1c0-0.6,0.4-1,1-1h12c0.5,0,1,0.4,1,0.9c0,0,0,0.1,0,0.1
	C61,36.6,60.6,37,60,37z"/>
<path class="st0" d="M60,32H48c-0.5,0-1-0.4-1-0.9c0,0,0-0.1,0-0.1c0-0.6,0.4-1,1-1h12c0.5,0,1,0.4,1,0.9c0,0,0,0.1,0,0.1
	C61,31.6,60.6,32,60,32z"/>
<path class="st0" d="M345,29h-2.5c-0.2-4.4-3.8-7.9-8.2-8H289c-3.3,0-6,2.7-6,6v31.2c-0.1,5.8,4.5,10.6,10.3,10.7c0,0,0,0,0,0h45.9
	c4.3,0,7.8-3.5,7.8-7.8V30.9C347,29.8,346.1,29,345,29L345,29z M287,58.3V27c0-1.1,0.8-2,1.9-2c0,0,0.1,0,0.1,0h0.1
	c1,0,1.9,0.8,1.9,1.8c0,0.1,0,0.1,0,0.2v31.2c0,1.1,0.9,2,2,2s2-0.9,2-2V25h39.3c2.2,0,4.1,1.8,4.2,4h-36.7c-1,0-1.9,0.8-1.9,1.8
	c0,0,0,0,0,0c0,0,0,0.1,0,0.1v27.3c0.1,3.7-2.8,6.7-6.5,6.8C290,65.1,287,62,287,58.3z M343,61.2c0,2.1-1.6,3.8-3.7,3.8c0,0,0,0,0,0
	h-38c1.5-2,2.8-4.1,2.8-6.7V33h39L343,61.2L343,61.2z"/>
<path class="st0" d="M325,48v13h2.8v-2.3c-0.1-1.6,1.1-3,2.7-3.1h0.4c-0.8-0.6-1.2-1.6-1.2-2.6c-0.2-1.5,0.8-2.9,2.3-3.1
	c1.5-0.2,2.9,0.8,3.1,2.3c0,0.2,0,0.5,0,0.8c0,1-0.4,2-1.2,2.6h0.3c1.6,0.1,2.8,1.5,2.7,3.1V61h3V48H325z"/>
<path class="st2" d="M307,36.1h2.2l2.8,4.2v-4.2h2.2v7.5H312l-2.8-4.1v4.1H307V36.1z"/>
<path class="st2" d="M315.7,36.1h6.2v1.6H318v1.2h3.6v1.5H318v1.5h4v1.7h-6.3V36.1z"/>
<path class="st2" d="M322.6,36.1h2.2l0.8,4.2l1.2-4.2h2.2l1.2,4.2l0.8-4.2h2.2l-1.7,7.5h-2.3l-1.3-4.7l-1.3,4.7h-2.3L322.6,36.1z"/>
<path class="st2" d="M333.4,41.2l2.2-0.1c0,0.3,0.1,0.6,0.3,0.8c0.2,0.3,0.6,0.5,1,0.5c0.3,0,0.6-0.1,0.8-0.2
	c0.2-0.2,0.3-0.3,0.3-0.5c0-0.2-0.1-0.4-0.3-0.5c-0.4-0.2-0.8-0.4-1.2-0.4c-0.8-0.1-1.5-0.4-2.2-0.9c-0.4-0.4-0.7-0.9-0.7-1.5
	c0-0.4,0.1-0.8,0.3-1.1c0.3-0.3,0.6-0.6,1-0.8c0.6-0.2,1.3-0.3,1.9-0.3c0.8,0,1.5,0.1,2.2,0.5c0.5,0.4,0.9,1,0.9,1.7l-2.2,0.1
	c-0.1-0.3-0.2-0.6-0.4-0.7c-0.2-0.2-0.4-0.2-0.8-0.2c-0.2,0-0.4,0.1-0.6,0.2c-0.1,0.1-0.2,0.2-0.2,0.4c0,0.1,0.1,0.2,0.2,0.3
	c0.2,0.2,0.5,0.3,0.8,0.3c0.8,0.1,1.5,0.3,2.2,0.7c0.4,0.2,0.7,0.5,1,0.8c0.4,0.8,0.4,1.7-0.1,2.4c-0.3,0.4-0.7,0.7-1.1,0.9
	c-0.6,0.2-1.2,0.3-1.8,0.3c-1,0.1-1.9-0.1-2.7-0.7C333.8,42.6,333.5,41.9,333.4,41.2z"/>
<path class="st0" d="M320,55h-12c-0.5,0-1-0.4-1-0.9c0,0,0-0.1,0-0.1c0-0.6,0.4-1,1-1h12c0.5,0,1,0.4,1,0.9c0,0,0,0.1,0,0.1
	C321,54.6,320.6,55,320,55z"/>
<path class="st0" d="M320,60h-12c-0.5,0-1-0.4-1-0.9c0,0,0-0.1,0-0.1c0-0.6,0.4-1,1-1h12c0.5,0,1,0.4,1,0.9c0,0,0,0.1,0,0.1
	C321,59.6,320.6,60,320,60z"/>
<path class="st0" d="M320,50h-12c-0.5,0-1-0.4-1-0.9c0,0,0-0.1,0-0.1c0-0.6,0.4-1,1-1h12c0.5,0,1,0.4,1,0.9c0,0,0,0.1,0,0.1
	C321,49.6,320.6,50,320,50z"/>
<path class="st0" d="M211.4,47.8l-8.7,1.5c-1.6,0.3-3,1.4-3.7,2.9l-6.6,14.1c-0.1,0.2,0.2,0.4,0.3,0.2c6.1-6.3,11.7-8.7,16.4-4.9
	L211.4,47.8z"/>
<path class="st0" d="M226.4,55.1l4.2,7.7c0.8,1.5,0.8,3.2,0.1,4.7l-6.9,14c-0.1,0.1-0.2,0.1-0.3,0.1c-0.1,0-0.1-0.1-0.1-0.2
	c1.2-8.7-0.5-14.5-6.4-15.9L226.4,55.1z"/>
<path class="st2" d="M237.2,15.8l2.1-5.9c0.5,0.1,1-0.2,1.2-0.7c0.3-0.6,0-1.3-0.6-1.6c-0.6-0.3-1.3,0-1.6,0.6l0,0l0,0
	c-0.2,0.5-0.1,1,0.3,1.4l-3.3,5.4c-3.9,1.3-14.6,10.3-21.3,24.1c-7.6,15.7-6,32.2-6,32.2l2,1c0,0,13.9-9,21.4-24.7
	C238.2,33.6,238.6,19.6,237.2,15.8z M233.3,21.4c0.6,0.3,0.9,1.1,0.6,1.7c-0.3,0.6-1.1,0.9-1.7,0.6c-0.6-0.3-0.9-1.1-0.6-1.7
	c0,0,0,0,0,0l0,0C231.9,21.4,232.7,21.1,233.3,21.4z M229.9,28.6c-2.7-1.3-5.5-1.3-5.6-2.2s3.5-2.7,7.1-0.9c3.6,1.7,4.5,5.7,3.7,6.1
	C234.3,32.1,232.6,29.9,229.9,28.6z"/>
<polygon class="st4" points="208.9,20 207.1,18.3 204.8,18.7 205.8,16.6 204.6,14.5 207,14.8 208.7,13 209.1,15.4 211.3,16.4 
	209.2,17.6 "/>
<polygon class="st4" points="196.2,42 193,39.8 189.4,40.9 190.6,37.3 188.3,34.2 192.1,34.2 194.4,31.1 195.6,34.7 199.2,35.9 
	196.2,38.2 "/>
<polygon class="st4" points="255.3,32.7 252.2,29.8 248,30.5 249.8,26.6 247.8,22.9 252.1,23.4 255.1,20.4 255.8,24.6 259.7,26.5 
	255.9,28.5 "/>
<polygon class="st4" points="244.2,53.2 242.9,50.7 240,50.2 242.1,48.2 241.6,45.4 244.2,46.6 246.7,45.4 246.3,48.2 248.3,50.2 
	245.5,50.7 "/>
<polygon class="st4" points="247.7,76 246.7,74.2 244.6,73.8 246.1,72.3 245.8,70.2 247.7,71.2 249.6,70.3 249.2,72.3 250.7,73.8 
	248.6,74.2 "/>
<polygon class="st4" points="199.7,76.2 198.7,74.4 196.6,74 198.1,72.5 197.8,70.5 199.7,71.4 201.6,70.5 201.2,72.6 202.7,74 
	200.6,74.4 "/>
<path class="st0" d="M118.7,160.2l-11.6,2.9c-0.6,0.1-1.1-0.4-0.9-0.9l2.9-11.6L118.7,160.2z"/>
<path class="st0" d="M157.2,121.7l-1.9,1.9l-9.7-9.7l1.9-1.9c2.5-2.6,6.7-2.6,9.2-0.1c0,0,0,0,0,0l0.1,0.1l0.4,0.4
	C159.8,114.9,159.8,119.1,157.2,121.7C157.3,121.6,157.3,121.6,157.2,121.7L157.2,121.7z"/>
<path class="st0" d="M114.5,149.3L114.5,149.3c-0.4-0.4-0.4-1,0-1.4l0,0l30.9-30.9l-1.5-1.5l-33.4,33.4l9.7,9.7l33.4-33.4l-6.9-6.9
	l-30.9,30.9c-0.2,0.4-0.7,0.5-1.1,0.3C114.6,149.4,114.6,149.4,114.5,149.3L114.5,149.3z"/>
<path class="st1" d="M147.6,154.2c2.3-1.3,6.9-2.7,8.6,3.4c1.2,4.2,5.1,5.2,7.5,5.4c0.1,0,0.1,0.1,0.1,0.2c0,0.1-0.1,0.1-0.1,0.1
	c-3.2,0.5-9.6,1.1-14.8-0.4C142.1,160.9,143.4,156.6,147.6,154.2z"/>
<path class="st1" d="M130.4,126.3c0,0-11.6-16.6-12.2-17.2s-5.4-5.2-9.4-1.6s-0.2,9.1,0.4,9.9c0.5,0.8,14.4,15.8,14.4,15.8
	L130.4,126.3z M112.2,108c0.3-0.3,3-0.2,4.7,1.7c0.3,0.4,0.3,1-0.1,1.4l0,0c-0.3,0.3-0.8,0.3-1.1,0c-0.1-0.1-0.1-0.1-0.2-0.2
	C114.7,109.7,113.5,108.7,112.2,108z"/>
<path class="st1" d="M135.4,146.2l7.2,7.8c0.5,0.5,1.3,0.6,1.9,0.2l2.6-2c0.6-0.5,0.8-1.4,0.3-2c0,0,0,0,0,0l0,0l-6.7-9.4
	L135.4,146.2z"/>
<path class="st1" d="M248.7,233.5c2.7,0,4.9-2.2,4.9-4.9v-8.9c0-2.7-2.2-4.9-4.9-4.9h-2.2v18.6L248.7,233.5L248.7,233.5z"/>
<path class="st1" d="M203.5,233.5v-18.6h-2.2c-2.7,0-4.9,2.2-4.9,4.9v8.9c0,2.7,2.2,4.9,4.9,4.9L203.5,233.5L203.5,233.5z"/>
<path class="st0" d="M225,195c-10.9,0-19.8,8.9-19.8,19.8v18.8c0,7.5,4.3,14.4,11,17.7v-0.5c0-1.3,0.4-2.5,1.2-3.5
	c-5-2.8-8-8-8-13.7v-18.7c0-8.7,7-15.7,15.7-15.7c8.7,0,15.7,7,15.7,15.7l0,0v19.3h4.1v-19.3C244.8,203.9,236,195.1,225,195z"/>
<path class="st1" d="M221.9,255c-2.3,0-4.1-1.8-4.1-4.1c0-2.3,1.8-4.1,4.1-4.1h4.7c2.3,0,4.1,1.8,4.1,4.1c0,2.3-1.8,4.1-4.1,4.1
	H221.9z"/>
<path class="st0" d="M286.8,234.1c0,1.2,0.1,2.5,0.4,3.7c1.2,6.3,7.2,10.5,13.5,9.6c5-0.7,8.3-3.7,10-8.5c0.5-2,0.7-4,0.6-6
	c0-0.4,0.2-0.8,0.5-1.1c0.9-0.9,2.1-1.4,3.4-1.4c1.3,0,2.5,0.5,3.4,1.4c0.3,0.3,0.5,0.7,0.5,1.1c-0.2,2,0.1,4.1,0.6,6
	c1.3,4.6,5.3,8,10,8.5c6.3,0.9,12.3-3.3,13.5-9.6c0.3-1.2,0.4-2.5,0.4-3.7l0,0c0-9-2.1-17.8-6-25.9c-1.6-3.5-5.1-5.7-9-5.7
	c-3.9,0.1-7.5,2.4-9.2,5.9c-1.2-0.6-2.5-0.9-3.9-0.9c-1.4,0-2.7,0.3-3.9,0.9c-2.3-5.1-8.2-7.3-13.3-5c-2.2,1-3.9,2.7-4.9,4.8
	C286.2,222.1,286.8,234.2,286.8,234.1L286.8,234.1z M331,227.7c4.2,0.1,7.5,3.6,7.4,7.9c-0.1,4.1-3.4,7.4-7.5,7.4h-0.2
	c-4.3-0.1-7.6-3.7-7.5-8v-0.1C323.5,230.8,326.9,227.7,331,227.7L331,227.7z M298.9,227.7c4.2,0,7.6,3.5,7.6,7.7
	c0,4.2-3.5,7.6-7.7,7.6c-4.2,0-7.6-3.4-7.6-7.6C291.3,231.2,294.7,227.8,298.9,227.7z"/>
<path class="st0" d="M60.7,345H29.3c-5.1,0-9.3-4.2-9.3-9.3v-38.4c0-5.1,4.2-9.3,9.3-9.3h2.5c1.1,0,2,0.9,2,2s-0.9,2-2,2h-2.5
	c-2.9,0-5.3,2.4-5.3,5.3v38.4c0,2.9,2.4,5.3,5.3,5.3h31.4c2.9,0,5.3-2.4,5.3-5.3v-38.4c0-2.9-2.4-5.3-5.3-5.3h-2.5c-1.1,0-2-0.9-2-2
	s0.9-2,2-2h2.5c5.1,0,9.3,4.2,9.3,9.3v38.4C70,340.8,65.8,345,60.7,345z"/>
<path class="st0" d="M51,298H39c-2.2,0-4-1.8-4-4v-6h20v6C55,296.2,53.2,298,51,298z"/>
<path class="st0" d="M45,293.5c-2.7,0-4.9-2.3-4.9-5s2.3-4.9,5-4.9s4.9,2.3,4.9,5C50,291.3,47.8,293.5,45,293.5L45,293.5z M45,285.5
	c-1.7,0-3,1.3-3,3s1.3,3,3,3s3-1.3,3-3c0-1.6-1.3-3-2.9-3c0,0,0,0,0,0H45z"/>
<path class="st0" d="M41.3,312.6l-2.9-2.9l2.9-2.9c0.7-0.7,0.7-1.9,0-2.6l-0.5-0.5c-0.7-0.7-1.9-0.7-2.6,0l-2.9,2.9l-2.9-2.9
	c-0.7-0.7-1.9-0.7-2.6,0l-0.5,0.5c-0.7,0.7-0.7,1.9,0,2.6l2.9,2.9l-2.9,2.9c-0.7,0.7-0.7,1.9,0,2.6l0.5,0.5c0.7,0.7,1.9,0.7,2.6,0
	l2.9-2.9l2.9,2.9c0.7,0.7,1.9,0.7,2.6,0l0.5-0.5C42,314.5,42,313.3,41.3,312.6z"/>
<path class="st0" d="M60.5,333l-2.9-2.9l2.9-2.9c0.7-0.7,0.7-1.9,0-2.6l-0.5-0.5c-0.7-0.7-1.9-0.7-2.6,0l-2.9,2.9l-2.9-2.9
	c-0.7-0.7-1.9-0.7-2.6,0l-0.5,0.5c-0.7,0.7-0.7,1.9,0,2.6l2.9,2.9l-2.9,2.9c-0.7,0.7-0.7,1.9,0,2.6l0.5,0.5c0.7,0.7,1.9,0.7,2.6,0
	l2.9-2.9l2.9,2.9c0.7,0.7,1.9,0.7,2.6,0l0.5-0.5C61.2,334.9,61.2,333.7,60.5,333z"/>
<path class="st1" d="M34.4,336.3c-0.3,0-0.5,0-0.8-0.1c-1.2-0.4-1.9-1.7-1.5-3c0-0.1,0-0.1,0.1-0.1c3.7-10.1,12.5-19.5,20.4-21.9
	c1.3-0.4,2.6,0.3,3,1.6s-0.3,2.6-1.6,3c-5.7,1.7-13.7,9.3-17.3,18.9C36.3,335.7,35.4,336.3,34.4,336.3z"/>
<path class="st1" d="M47.6,309l5.8,10.2c0.3,0.6,1.1,0.8,1.6,0.4c0.2-0.1,0.4-0.3,0.5-0.5l4.3-8.5c0.5-0.9,0.1-2-0.8-2.5
	c-0.2-0.1-0.4-0.2-0.7-0.2l-9.6-0.7c-0.7,0-1.2,0.4-1.3,1.1C47.4,308.5,47.5,308.8,47.6,309L47.6,309z"/>
<path class="st1" d="M121.9,295.5c5,0,10.1,2.6,13,8.7c3.7-6,9.1-8.6,14-8.6c8.9,0,16.5,8.4,10.3,19.7
	c-8.2,15.1-24.3,24.1-24.3,24.2c0,0-16.1-9.1-24.3-24.2C104.4,304,112.9,295.5,121.9,295.5 M121.9,291.5c-6.2-0.1-12,3.1-15.2,8.3
	c-3,5.1-2.9,11.3,0.5,17.4c8.9,16.3,25.8,25.7,26,25.8l1.8,0.9l1.8-0.9c0.2-0.1,17.1-9.5,26-25.8c3.5-6.3,3.7-12.7,0.6-17.8
	c-3.1-5-8.6-7.9-14.4-7.8c-5.2,0-10.1,2.1-13.8,5.8C131.8,293.7,127,291.5,121.9,291.5L121.9,291.5z"/>
<g>
	<path class="st0" d="M241,340h-33c-5,0-9-4-9-9v-16.5h51V331C250,336,246,340,241,340z"/>
	<polygon class="st1" points="232,312 223.8,312 228.2,306 236.3,306 	"/>
	<polygon class="st1" points="216.2,312 208,312 212.3,306 220.5,306 	"/>
	<polygon class="st1" points="250,312 239.7,312 244,306 250,306 	"/>
	<circle class="st1" cx="203" cy="306" r="4.3"/>
	<polygon class="st1" points="236.8,290.6 240.6,293.7 233.2,295.7 229.4,292.6 221.5,294.7 225.4,297.8 218,299.8 214.1,296.7 
		206.2,298.9 212,303.5 214.6,302.8 219.9,301.4 227.3,299.4 235.2,297.2 242.6,295.2 248.7,293.6 248.2,291.7 247.1,287.8 	"/>
</g>
</svg>
