<?xml version="1.0" encoding="utf-8"?>
<!-- Generator: Adobe Illustrator 22.0.1, SVG Export Plug-In . SVG Version: 6.00 Build 0)  -->
<svg version="1.1" id="Layer_1" xmlns="http://www.w3.org/2000/svg" xmlns:xlink="http://www.w3.org/1999/xlink" x="0px" y="0px"
	 viewBox="0 0 640 520" style="enable-background:new 0 0 640 520;" xml:space="preserve">
<style type="text/css">
	.st0{fill:#595959;}
	.st1{fill:#7A2F8F;}
	.st2{fill:#EB582A;}
	.st3{fill:#B3B3B3;}
</style>
<title>Artboard 1</title>
<path class="st0" d="M205.7,386.4c-6.6-0.2-11.9-5.5-12.1-12.1l25.6-25.6l-0.4-0.7c-10-17.3-4.2-39.4,13.1-49.5
	c17.3-10,39.4-4.2,49.5,13.1c10,17.3,4.2,39.4-13.1,49.5c-11.2,6.5-25.1,6.5-36.4,0l-0.7-0.4L205.7,386.4z M250.2,305.1
	c-13.6,0-24.7,11.1-24.7,24.7s11.1,24.7,24.7,24.7s24.7-11.1,24.7-24.7S263.8,305.1,250.2,305.1L250.2,305.1z"/>
<path class="st0" d="M26,170v70h108v-70H26z M123,231H37v-52h86V231z"/>
<polygon class="st0" points="96.9,270 63.2,270 69.9,244.7 90.2,244.7 "/>
<polygon class="st1" points="59.8,204.4 71.6,192.6 64.9,185.8 46.3,204.4 64.9,222.9 71.6,216.2 "/>
<polygon class="st1" points="100.3,204.4 88.5,216.2 95.2,222.9 113.8,204.4 95.2,185.8 88.5,192.6 "/>
<path class="st0" d="M39.8,384.1C39.8,384,39.7,384,39.8,384.1C39.7,384,39.8,384,39.8,384.1z"/>
<path class="st0" d="M357.3,272.7c-0.3,0.1-0.5,0.1-0.8,0.1C356.8,272.7,357,272.7,357.3,272.7z"/>
<path class="st0" d="M361.7,270.3c-1.1,1.1-2.6,1.9-4.1,2.3C359.2,272.2,360.6,271.4,361.7,270.3z"/>
<path class="st0" d="M355.6,272.8L355.6,272.8c-0.3,0-0.5-0.1-0.8-0.1C355.1,272.8,355.3,272.8,355.6,272.8z"/>
<path class="st0" d="M354,272.7c-0.1,0-0.3-0.1-0.4-0.1C353.7,272.6,353.9,272.6,354,272.7z"/>
<path class="st1" d="M438.9,270.4c3.2,3.2,8.5,3.2,11.7,0s3.2-8.5,0-11.7l-39.4-39.4L399.5,231L438.9,270.4z M442.5,262.3
	c1.4-1.4,3.5-1.4,4.9,0s1.4,3.5,0,4.9s-3.5,1.4-4.9,0l0,0l0,0c-1.4-1.3-1.4-3.4-0.1-4.8l0,0L442.5,262.3z"/>
<path class="st1" d="M389.2,197.4c4.6-11.1-0.6-23.8-11.6-28.5c-4.8-2-10.1-2.2-15.1-0.6c-0.6,0.2-1,0.9-0.8,1.5
	c0.1,0.2,0.2,0.4,0.3,0.5l13.3,13.3c0.9,1,0.9,2.4,0,3.4l-8.3,8.3c-0.9,0.9-2.4,0.9-3.3,0L350.4,182c-0.5-0.5-1.2-0.5-1.7,0
	c-0.1,0.1-0.2,0.3-0.3,0.5c-3.7,11.4,2.6,23.7,14,27.3c4.9,1.6,10.3,1.4,15.1-0.6l11.2,11.2l11.7-11.7L389.2,197.4z"/>
<path class="st0" d="M452.7,173.8l-6.7-6.7l-16.5,9.8l-1.1,7.9l0.6,0.6l-52.8,52.8l-3.3-3.3l-23.2,23.2c-3.4,3.3-3.4,8.8-0.1,12.1
	l0,0l0.1,0.1c0.8,0.8,1.7,1.4,2.7,1.8c0.1,0,0.1,0,0.1,0.1l0,0l0,0c0.4,0.2,0.8,0.3,1.2,0.4c0.1,0,0.3,0.1,0.4,0.1
	c0.3,0.1,0.6,0.1,0.9,0.1s0.5,0.1,0.8,0.1s0.5-0.1,0.8-0.1s0.5,0,0.8-0.1c0.1,0,0.3-0.1,0.4-0.1c1.5-0.4,3-1.2,4.1-2.3l23.2-23.2
	l-3.4-3.4l52.8-52.8l0.6,0.6l7.9-1.1L452.7,173.8z"/>
<path class="st0" d="M609.7,235.5c0,0-14.3,34.1-49.7,34.1s-49.7-34.1-49.7-34.1s25.5,6.2,49,6.2C583,241.7,609.7,235.5,609.7,235.5
	z"/>
<path class="st1" d="M617.8,198.3c-26.1-8.1-46.6-27.9-57.7-27.9c-11.2,0-31.7,19.9-57.7,27.9c-3.5,0.9-5.5,4.5-4.6,8
	c0.2,0.7,0.5,1.3,0.9,1.9c5.6,7.4,11.8,8.1,11.8,16.8c0,0,24.8,6.2,49.7,6.2c24.8,0,49.7-6.2,49.7-6.2c0-8.7,6.2-9.3,11.2-17.4
	C623.4,204.5,621.6,199.5,617.8,198.3z M571.2,218.6l-10.4-5.2l-10.4,5.2l1.7-11.5l-8.2-8.3l11.5-1.9l5.4-10.4l5.4,10.4l11.5,1.9
	l-8.2,8.3L571.2,218.6z"/>
<path class="st1" d="M94.5,331.3l-19.3,23.1l-9-9c-1.3-1.3-9.2,6.6-7.9,7.9l17,17l27.2-31.1C103.7,337.9,95.8,329.9,94.5,331.3z"/>
<path class="st0" d="M112,295h-8v10h8c1.6,0,3,1.3,3,2.9v0.1v76c0,1.6-1.3,3-2.9,3l0,0H48c-1.6,0-3-1.3-3-2.9V384v-76
	c0-1.6,1.3-3,2.9-3l0,0H56v-10h-8c-7.2,0-13,5.8-13,12.9l0,0c0,0,0,0,0,0.1v76c0,7.2,5.8,13,12.9,13l0,0H112c7.2,0,13-5.8,13-12.9
	l0,0c0,0,0,0,0-0.1v-76C125,300.8,119.2,295,112,295C112.1,295,112.1,295,112,295L112,295z"/>
<path class="st0" d="M96,314.7H64c-2.2,0-4-1.8-4-4v-16h40v16C100,312.9,98.2,314.7,96,314.7z"/>
<path class="st0" d="M79.3,306.2c-6.4,0-11.5-5.1-11.5-11.5s5.1-11.5,11.5-11.5s11.5,5.1,11.5,11.5l0,0l0,0
	C90.8,301,85.6,306.2,79.3,306.2z M79.3,290.2c-2.5,0-4.5,2-4.5,4.5s2,4.5,4.5,4.5s4.5-2,4.5-4.5S81.8,290.2,79.3,290.2L79.3,290.2z
	"/>
<path class="st0" d="M210.1,266.6l-21.6,5.4c-0.7,0.2-1.5-0.2-1.7-0.9c-0.1-0.3-0.1-0.5,0-0.8l5.4-21.6L210.1,266.6z"/>
<path class="st0" d="M281.6,195.1l-3.7,3.7L260,180.9l3.7-3.7c4.7-4.7,12.3-4.7,17,0l0,0l0.9,0.9
	C286.3,182.8,286.3,190.4,281.6,195.1L281.6,195.1z"/>
<path class="st0" d="M202.2,246.5L202.2,246.5c-0.7-0.7-0.7-1.8,0-2.5l0,0l57.4-57.4l-2.7-2.7L194.8,246l17.9,17.9l62.1-62.1
	l-12.7-12.7l-57.4,57.4C204,247.2,202.9,247.2,202.2,246.5L202.2,246.5z"/>
<path class="st1" d="M263.6,255.5c4.3-2.5,12.8-4.9,16,6.3c2.2,7.9,9.5,9.7,14,10.1c0.4,0,0.4,0.5,0,0.6c-5.9,0.9-17.7,2.1-27.4-0.8
	C253.5,267.9,255.9,260,263.6,255.5z"/>
<path class="st1" d="M231.7,203.8c0,0-21.6-30.8-22.7-32s-10.1-9.6-17.5-2.9c-7.4,6.8-0.3,17,0.7,18.4s26.8,29.3,26.8,29.3
	L231.7,203.8z M197.9,169.8c0.6-0.6,5.6-0.3,8.7,3.2c0.6,0.8,0.6,1.9-0.1,2.6l0,0c-0.6,0.6-1.6,0.6-2.2-0.1
	c-0.1-0.1-0.2-0.2-0.2-0.3C202.5,172.9,200.4,171,197.9,169.8z"/>
<path class="st1" d="M241,240.8l13.3,14.6c0.9,1,2.4,1.1,3.5,0.3l4.9-3.7c1.1-0.9,1.4-2.4,0.6-3.6l-12.4-17.5L241,240.8z"/>
<path class="st1" d="M443,355.1c4.9,0,8.8-3.9,8.8-8.8v-16.1c0-4.9-3.9-8.8-8.8-8.8h-4v33.8h4V355.1z"/>
<path class="st1" d="M361,355.1v-33.8h-4c-4.9,0-8.8,3.9-8.8,8.8v16.1c0,4.9,3.9,8.8,8.8,8.8h4V355.1z"/>
<path class="st0" d="M400,285.2c-19.9,0-36,16.1-36,36v34.1c0,13.7,7.7,26.2,20,32.2v-0.9c0-2.3,0.8-4.6,2.2-6.4
	c-9-5-14.6-14.6-14.6-24.9v-34.1c0-15.7,12.8-28.5,28.5-28.5s28.5,12.8,28.5,28.5v35.1h7.5v-35.1C436,301.3,419.9,285.3,400,285.2z"
	/>
<path class="st1" d="M394.4,394.2c-4.1,0-7.5-3.4-7.5-7.5s3.4-7.5,7.5-7.5h8.5c4.1,0,7.5,3.4,7.5,7.5s-3.4,7.5-7.5,7.5H394.4z"/>
<path class="st0" d="M512.6,355.3c-0.1,2.1,0.1,4.2,0.6,6.3c2,10.6,12,17.7,22.6,16.1c8.4-1.2,14-6.1,16.7-14.3
	c1.1-3.2,1-6.7,1-10.1c0-0.7,0.3-1.4,0.8-1.8c1.5-1.5,3.6-2.3,5.7-2.3c2.1,0,4.2,0.8,5.7,2.3c0.5,0.5,0.8,1.1,0.8,1.8
	c0,3.4-0.1,6.9,1,10.1c2.8,8.1,8.3,13,16.7,14.3c10.6,1.6,20.6-5.5,22.6-16.1c0.5-2.1,0.7-4.2,0.6-6.3l0,0c0,0,1-20.2-10.1-43.5
	c-2.8-5.9-8.7-9.6-15.2-9.6c-6.6,0.1-12.6,4-15.4,10c-2-1.1-4.3-1.6-6.6-1.6s-4.6,0.5-6.6,1.6c-2.7-6.1-8.8-10-15.4-10
	c-6.5,0-12.4,3.7-15.2,9.6C511.6,335.1,512.6,355.4,512.6,355.3L512.6,355.3z M586.8,344.6c6.9-0.1,12.7,5.4,12.8,12.4
	c0,0.2,0,0.4,0,0.6c0,7.1-5.8,12.9-12.9,12.9c-7.1,0-12.9-5.8-12.9-12.9c0-0.1,0-0.1,0-0.2c0-0.2,0-0.4,0-0.6
	C574.1,350.2,580,344.3,586.8,344.6L586.8,344.6z M532.9,344.6c6.7-0.3,12.6,5.6,13,12.2c0.4,7.1-5.1,13.2-12.2,13.6
	s-13.2-5.1-13.6-12.2c0-0.2,0-0.4,0-0.6C520.2,349.4,527.1,344.3,532.9,344.6z"/>
<path class="st0" d="M112,415h-8v10h8c1.6,0,3,1.3,3,2.9v0.1v76c0,1.6-1.3,3-2.9,3l0,0H48c-1.6,0-3-1.3-3-2.9V504v-76
	c0-1.6,1.3-3,2.9-3l0,0H56v-10h-8c-7.2,0-13,5.8-13,12.9l0,0c0,0,0,0,0,0.1v76c0,7.2,5.8,13,12.9,13l0,0H112c7.2,0,13-5.8,13-12.9
	l0,0c0,0,0,0,0-0.1v-76C125,420.8,119.2,415,112,415C112.1,415,112.1,415,112,415L112,415z"/>
<path class="st0" d="M96,434.7H64c-2.2,0-4-1.8-4-4v-16h40v16C100,432.9,98.2,434.7,96,434.7z"/>
<path class="st0" d="M79.3,426.2c-6.4,0-11.5-5.1-11.5-11.5s5.1-11.5,11.5-11.5s11.5,5.1,11.5,11.5l0,0l0,0
	C90.8,421,85.6,426.2,79.3,426.2z M79.3,410.2c-2.5,0-4.5,2-4.5,4.5s2,4.5,4.5,4.5s4.5-2,4.5-4.5S81.8,410.2,79.3,410.2L79.3,410.2z
	"/>
<path class="st0" d="M74.3,457.3l-4.7-4.7l4.7-4.7c1.2-1.1,1.2-2.9,0.1-4.1l0,0l-0.1-0.1l-0.7-0.7c-1.1-1.2-2.9-1.2-4.1-0.1
	l-0.1,0.1l-4.7,4.7L60,443c-1.1-1.2-2.9-1.2-4.1-0.1l-0.1,0.1l-0.7,0.7c-1.2,1.1-1.2,2.9-0.1,4.1l0,0l0.1,0.1l4.7,4.7l-4.7,4.7
	c-1.2,1.1-1.2,2.9-0.1,4.1l0,0l0.1,0.1l0.7,0.7c1.1,1.2,2.9,1.2,4.1,0.1l0.1-0.1l4.7-4.7l4.7,4.7c1.1,1.2,2.9,1.2,4.1,0.1l0.1-0.1
	l0.7-0.7C75.2,460.4,75,458.6,74.3,457.3z"/>
<path class="st0" d="M106.1,491.1l-4.7-4.7l4.7-4.7c1.2-1.1,1.2-2.9,0.1-4.1l0,0l-0.1-0.1l-0.7-0.7c-1.1-1.2-2.9-1.2-4.1-0.1
	l-0.1,0.1l-4.7,4.7l-4.7-4.7c-1.1-1.2-2.9-1.2-4.1-0.1l-0.1,0.1l-0.7,0.7c-1.2,1.1-1.2,2.9-0.1,4.1l0,0l0.1,0.1l4.7,4.7l-4.7,4.7
	c-1.2,1.1-1.2,2.9-0.1,4.1l0,0l0.1,0.1l0.7,0.7c1.1,1.2,2.9,1.2,4.1,0.1l0.1-0.1l4.7-4.7l4.7,4.7c1.1,1.2,2.9,1.2,4.1,0.1l0.1-0.1
	l0.7-0.7c1.2-1.1,1.2-2.9,0.1-4.1l0,0L106.1,491.1z"/>
<path class="st1" d="M63,496.5c-0.5,0-0.9-0.1-1.4-0.2c-2.1-0.8-3.1-3-2.4-5.1c6.1-16.8,20.7-32.4,33.8-36.3c2.1-0.6,4.4,0.6,5,2.7
	s-0.6,4.4-2.7,5c-9.5,2.8-22.7,15.3-28.6,31.3C66.2,495.5,64.7,496.5,63,496.5z"/>
<path class="st1" d="M84.8,451.3l9.7,16.9c0.5,0.9,1.7,1.3,2.7,0.7c0.4-0.2,0.7-0.5,0.8-0.9l7.2-14c0.8-1.5,0.2-3.4-1.3-4.2
	c-0.4-0.2-0.8-0.3-1.2-0.3l-15.8-1.1c-1.1-0.2-2.1,0.6-2.3,1.6C84.5,450.5,84.6,450.9,84.8,451.3z"/>
<path class="st0" d="M624.8,47h-5.4c-0.2-9.4-7.9-17-17.3-17h-98.2c-7.1,0-12.8,5.7-12.8,12.8v64.3c0,12.6,9.8,22.9,21.8,22.9h99.5
	c9.2,0,16.6-7.4,16.6-16.6V51.2C629,48.9,627.1,47,624.8,47z M499.3,107.1V42.8c0-2.5,2-4.5,4.5-4.5l0,0h0.6c2.5,0,4.5,2,4.5,4.5
	l0,0l0,0v64.1c0,2.3,1.9,4.2,4.2,4.2s4.2-1.9,4.2-4.2V42.8c0-1.6-0.3-3.3-0.8-4.8h85.6c4.9,0.2,8.8,4.1,9,9h-80.6
	c-2.3,0-4.2,1.9-4.2,4.2v56c0,8-6.1,14.6-13.5,14.6C505.4,121.7,499.3,115.1,499.3,107.1z M621,112.7c0,4.6-3.7,8.3-8.3,8.3l0,0h-83
	c3.3-4.2,5-9.3,5-14.6V55H621V112.7z"/>
<path class="st0" d="M572,92.2h-25.8c-1.3,0-2.4-1.1-2.4-2.4s1.1-2.4,2.4-2.4l0,0H572c1.3,0,2.4,1.1,2.4,2.4S573.3,92.2,572,92.2z"
	/>
<path class="st0" d="M572,102.4h-25.8c-1.3,0-2.4-1.1-2.4-2.4s1.1-2.4,2.4-2.4l0,0H572c1.3,0,2.4,1.1,2.4,2.4S573.3,102.4,572,102.4
	z"/>
<path class="st0" d="M572,112.3h-25.8c-1.3,0-2.4-1.1-2.4-2.4s1.1-2.4,2.4-2.4l0,0H572c1.3,0,2.4,1.1,2.4,2.4S573.3,112.3,572,112.3
	z"/>
<path class="st0" d="M581.2,86.7v26.9h5.9v-4.7c0-3.5,2.5-6.4,5.6-6.4h0.9c-1.7-1.3-2.6-3.3-2.6-5.4c0-3.5,2.5-6.4,5.6-6.4
	s5.6,2.9,5.6,6.4c0,2.1-0.9,4.1-2.6,5.4h0.6c3.1,0,5.6,2.9,5.6,6.4v4.7h6.2V86.7H581.2z"/>
<path class="st2" d="M543.3,63.1h4.6l6,8.8v-8.8h4.6V79h-4.6l-5.9-8.7V79h-4.6L543.3,63.1L543.3,63.1z"/>
<path class="st2" d="M561.7,63.1h13.2v3.4h-8.2V69h7.6v3.2h-7.6v3.1h8.5V79h-13.4L561.7,63.1z"/>
<path class="st2" d="M576.1,63.1h4.7l1.7,8.9l2.5-8.9h4.6L592,72l1.7-8.9h4.6L594.8,79H590l-2.8-10l-2.8,10h-4.8L576.1,63.1z"/>
<path class="st2" d="M599.1,73.8l4.7-0.3c0,0.6,0.2,1.2,0.6,1.7c0.5,0.7,1.4,1,2.2,1c0.6,0,1.1-0.2,1.6-0.5c0.4-0.2,0.6-0.7,0.6-1.1
	s-0.2-0.8-0.5-1.1c-0.8-0.4-1.6-0.8-2.5-0.9c-1.7-0.3-3.2-0.9-4.6-1.9c-0.9-0.8-1.4-1.9-1.4-3.1c0-0.8,0.2-1.6,0.7-2.3
	c0.5-0.7,1.3-1.3,2.1-1.7c1.2-0.4,2.6-0.7,3.9-0.6c1.6-0.1,3.2,0.3,4.6,1.1c1.1,0.9,1.8,2.2,1.9,3.6l-4.6,0.3
	c-0.1-0.6-0.4-1.2-0.8-1.6c-0.5-0.3-1-0.5-1.6-0.5c-0.5-0.1-0.9,0.1-1.3,0.4c-0.3,0.2-0.4,0.5-0.4,0.9c0,0.3,0.1,0.6,0.4,0.7
	c0.5,0.3,1,0.5,1.6,0.6c1.6,0.3,3.1,0.8,4.6,1.4c0.8,0.4,1.5,1,2,1.8c0.4,0.7,0.6,1.6,0.6,2.4c0,1-0.3,2-0.8,2.8
	c-0.6,0.9-1.4,1.6-2.4,2c-1.2,0.5-2.5,0.7-3.8,0.7c-2.7,0-4.6-0.5-5.6-1.6C599.8,76.8,599.2,75.4,599.1,73.8z"/>
<path class="st0" d="M374.3,88.2l-17.6,3.1c-3.3,0.6-6.1,2.8-7.6,5.8l-13.4,28.6c-0.1,0.2,0,0.4,0.1,0.5c0.2,0.1,0.4,0.1,0.5-0.1
	c12.3-12.7,23.6-17.6,33.2-9.9L374.3,88.2z"/>
<path class="st0" d="M404.7,102.8l8.5,15.7c1.6,2.9,1.7,6.5,0.2,9.5l-14,28.3c-0.2,0.4-0.8,0.2-0.7-0.2c2.3-17.5-0.9-29.5-12.9-32.1
	L404.7,102.8z"/>
<path class="st2" d="M426.6,23.3l4.3-12c1,0.1,2-0.4,2.5-1.3c0.6-1.1,0.1-2.6-1-3.2h-0.1c-1.2-0.6-2.6-0.1-3.2,1.1
	c-0.5,0.9-0.3,2.1,0.5,2.8l-6.7,10.9c-7.8,2.6-29.6,20.9-43.1,48.9c-15.3,31.8-12.2,65.2-12.2,65.2l4.1,2c0,0,28.1-18.3,43.4-50.1
	C428.6,59.5,429.4,31,426.6,23.3z M418.8,34.7c1.3,0.6,1.8,2.2,1.2,3.5c-0.6,1.3-2.2,1.8-3.5,1.2s-1.8-2.2-1.2-3.5
	C415.9,34.6,417.5,34.1,418.8,34.7L418.8,34.7z M411.8,49.2c-5.4-2.6-11.2-2.6-11.4-4.4s7.1-5.4,14.4-1.8s9.1,11.5,7.6,12.4
	C420.8,56.4,417.2,51.9,411.8,49.2z"/>
<path class="st3" d="M369.9,33.8l-4.6-4.3l-6.2,1.1l2.6-5.7l-3-5.5l6.2,0.7l4.3-4.5l1.2,6.2l5.6,2.7l-5.5,3.1L369.9,33.8z M366,27.3
	l2.5,2.3l0.5-3.4l3-1.7l-3.1-1.5l-0.7-3.4l-2.4,2.5l-3.4-0.4l1.6,3l-1.4,3.1L366,27.3z"/>
<path class="st3" d="M344.5,78.2l-7.4-5.3l-8.7,2.8L331,67l-5.3-7.4l9.1-0.1l5.4-7.4l2.9,8.6l8.7,2.9l-7.3,5.5L344.5,78.2
	L344.5,78.2z M337.3,70.7l5.1,3.6V68l5-3.8l-6-2l-2-5.9l-3.7,5.1l-6.3,0.1l3.7,5.1l-1.9,6L337.3,70.7z"/>
<path class="st3" d="M468,53.6l-7.3-6.9l-9.9,1.7l4.3-9.1l-4.7-8.9l10,1.3l7-7.2l1.8,9.9l9,4.5l-8.8,4.8L468,53.6z M461.4,44.5
	l5.2,5l1.1-7.1L474,39l-6.5-3.2l-1.3-7.1l-5.1,5.2l-7.2-0.9l3.3,6.4l-3.1,6.5L461.4,44.5z"/>
<path class="st3" d="M440.7,101.2l-3.3-6.4l-7.1-1.2l5.1-5.1l-1-7.1l6.4,3.2l6.4-3.2l-1.1,7.1l5,5.1l-7.1,1.2L440.7,101.2z
	 M434.4,92.3l4.3,0.7l2,3.9l2-3.8l4.3-0.7l-3-3.1l0.7-4.3l-3.9,1.9l-3.9-2l0.6,4.3L434.4,92.3z"/>
<path class="st3" d="M447.8,147.4l-2.6-5l-5.6-1l4-4l-0.8-5.6l5.1,2.5l5.1-2.5l-0.9,5.6l4,4.1l-5.6,0.9L447.8,147.4z M443.7,140.1
	l2.8,0.5l1.3,2.5l1.3-2.5l2.8-0.5l-2-2l0.4-2.8l-2.5,1.2l-2.5-1.3l0.4,2.8L443.7,140.1z"/>
<path class="st3" d="M342.5,154l-2.6-5l-5.6-1l4-4l-0.8-5.6l5.1,2.5l5.1-2.5l-0.9,5.6l4,4.1l-5.6,0.9L342.5,154z M338.4,146.7
	l2.8,0.5l1.3,2.5l1.3-2.5l2.8-0.5l-2-2l0.4-2.8l-2.5,1.2l-2.5-1.3l0.4,2.8L338.4,146.7z"/>
<path class="st0" d="M284,149h-88c-7.2,0-13-5.8-13-12.9l0,0c0,0,0,0,0-0.1V25c0-7.2,5.8-13,12.9-13l0,0H284c7.2,0,13,5.8,13,12.9
	l0,0c0,0,0,0,0,0.1v111C297,143.2,291.2,149,284,149C284.1,149,284.1,149,284,149L284,149z M196,22c-1.6,0-3,1.4-3,3v111
	c0,1.6,1.4,3,3,3h88c1.6,0,3-1.4,3-3V25c0-1.6-1.4-3-3-3H196z"/>
<path class="st0" d="M275.3,50.5h-27.8c-1.3,0-2.4-1.1-2.4-2.4c0-1.3,1.1-2.4,2.4-2.4h27.8c1.3,0,2.4,1.1,2.4,2.4
	C277.7,49.4,276.6,50.5,275.3,50.5z"/>
<path class="st0" d="M275.3,63.4h-27.8c-1.3,0-2.4-1.1-2.4-2.4c0-1.3,1.1-2.4,2.4-2.4h27.8c1.3,0,2.4,1.1,2.4,2.4
	C277.7,62.3,276.6,63.4,275.3,63.4z"/>
<path class="st0" d="M275.3,84.5h-70.8c-1.3,0-2.4-1.1-2.4-2.4s1.1-2.4,2.4-2.4h70.8c1.3,0,2.4,1.1,2.4,2.4S276.6,84.5,275.3,84.5z"
	/>
<path class="st0" d="M275.3,97.4h-70.8c-1.3,0-2.4-1.1-2.4-2.4s1.1-2.4,2.4-2.4h70.8c1.3,0,2.4,1.1,2.4,2.4S276.6,97.4,275.3,97.4z"
	/>
<path class="st0" d="M275.3,110.2h-70.8c-1.3,0-2.4-1.1-2.4-2.4s1.1-2.4,2.4-2.4h70.8c1.3,0,2.4,1.1,2.4,2.4
	S276.6,110.2,275.3,110.2z"/>
<path class="st0" d="M275.3,123.1h-70.8c-1.3,0-2.4-1.1-2.4-2.4s1.1-2.4,2.4-2.4h70.8c1.3,0,2.4,1.1,2.4,2.4
	S276.6,123.1,275.3,123.1z"/>
<path class="st0" d="M235.1,42.6c0.2,0.2,0.3,0.4,0.5,0.6c1.3-3.7,0.9-5.1,0.6-5.5c-0.1-0.2-0.4-0.6-1.7-0.6
	c-1.5,0.1-2.9,0.5-4.3,1.1C232,39.4,233.7,40.9,235.1,42.6z"/>
<path class="st0" d="M204.9,42.6c-0.2,0.2-0.3,0.4-0.5,0.6c-1.3-3.7-0.9-5.1-0.6-5.5c0.1-0.2,0.4-0.6,1.7-0.6
	c1.5,0.1,2.9,0.5,4.3,1.1C208,39.4,206.3,40.9,204.9,42.6z"/>
<path class="st2" d="M220,36.7c-7.2,0-14.1,4.9-18,12.9v20.1h36V49.6C234.1,41.6,227.2,36.7,220,36.7z M220,61.5
	c-4.9,0-8.9-4-8.9-8.9s4-8.9,8.9-8.9s8.9,4,8.9,8.9l0,0l0,0C228.9,57.5,224.9,61.5,220,61.5z"/>
<path class="st0" d="M220,44.3c-4.5,0-8.2,3.7-8.2,8.2s3.7,8.2,8.2,8.2s8.2-3.7,8.2-8.2l0,0l0,0C228.2,48,224.5,44.3,220,44.3
	 M220,62.8c-5.7,0-10.3-4.6-10.3-10.3s4.6-10.3,10.3-10.3s10.3,4.6,10.3,10.3S225.7,62.8,220,62.8L220,62.8"/>
<path class="st0" d="M220,50.1c-0.8,0-1.5,0.4-1.9,1c0.5,0.1,0.8,0.3,0.8,0.6s-0.5,0.6-1.3,0.7v0.1c0,1.3,1,2.3,2.3,2.3
	s2.3-1,2.3-2.3c0.1-1.2-0.8-2.3-2-2.4l0,0C220.1,50.1,220.1,50.1,220,50.1z"/>
<path class="st1" d="M220.7,432.1c7.3,0,14.9,3.8,19.2,12.8c5.5-8.9,13.3-12.6,20.6-12.6c13.1,0,24.2,12.3,15.1,29
	c-12.1,22.2-35.7,35.5-35.7,35.5c-0.1,0-23.6-13.3-35.7-35.5C195.1,444.5,207.5,432.1,220.7,432.1 M220.7,423.1
	c-10.4,0-20,5.3-25.1,13.7c-5.1,8.5-4.8,18.7,0.6,28.7c13.5,24.8,39.3,39.1,39.5,39.2l4.1,2.1l4.1-2.1c0.3-0.1,26-14.5,39.5-39.2
	c5.5-10.2,5.9-20.8,0.9-29.3c-4.8-8-13.9-13-23.9-13c-7.4,0-14.5,2.6-20.1,7.4C235,425.8,228,423.1,220.7,423.1L220.7,423.1
	L220.7,423.1z"/>
<g>
	<g>
		<path class="st2" d="M23.6,32.4v107h46v-31.1h20.7v31.1h46v-107C136.3,32.4,23.6,32.4,23.6,32.4z M46.6,127.9H35.1v-8.1h11.5
			V127.9z M46.6,117.5H35.1v-8.1h11.5V117.5z M46.6,95.7H35.1v-8.1h11.5V95.7z M46.6,85.3H35.1v-8.1h11.5V85.3z M46.6,63.4H35.1
			v-8.1h11.5V63.4z M46.6,53.1H35.1V45h11.5V53.1z M60.4,127.9H48.9v-8.1h11.5V127.9z M60.4,117.5H48.9v-8.1h11.5V117.5z M60.4,95.7
			H48.9v-8.1h11.5V95.7z M60.4,85.3H48.9v-8.1h11.5V85.3z M60.4,63.4H48.9v-8.1h11.5V63.4z M60.4,53.1H48.9V45h11.5V53.1z
			 M78.8,95.7H67.3v-8.1h11.5V95.7z M78.8,85.3H67.3v-8.1h11.5V85.3z M78.8,63.4H67.3v-8.1h11.5V63.4z M78.8,53.1H67.3V45h11.5V53.1
			z M92.7,95.7H81.2v-8.1h11.5V95.7z M92.7,85.3H81.2v-8.1h11.5V85.3z M92.7,63.4H81.2v-8.1h11.5V63.4z M92.7,53.1H81.2V45h11.5
			V53.1z M111.1,127.9H99.6v-8.1h11.5V127.9z M111.1,117.5H99.6v-8.1h11.5V117.5z M111.1,95.7H99.6v-8.1h11.5V95.7z M111.1,85.3
			H99.6v-8.1h11.5V85.3z M111.1,63.4H99.6v-8.1h11.5V63.4z M111.1,53.1H99.6V45h11.5V53.1z M124.9,127.9h-11.5v-8.1h11.5V127.9z
			 M124.9,117.5h-11.5v-8.1h11.5V117.5z M124.9,95.7h-11.5v-8.1h11.5V95.7z M124.9,85.3h-11.5v-8.1h11.5V85.3z M124.9,63.4h-11.5
			v-8.1h11.5V63.4z M124.9,53.1h-11.5V45h11.5V53.1z"/>
		<polygon class="st0" points="140.7,27.8 19,27.8 19,33.5 141,33.5 		"/>
	</g>
	<rect x="47.5" y="21.6" class="st0" width="65" height="6.5"/>
</g>
<g>
	<path class="st0" d="M429,506h-58c-9.9,0-18-8.1-18-18v-29h94v29C447,497.9,438.9,506,429,506z"/>
	<polygon class="st1" points="414.4,454 399.6,454 407.5,442 422.2,442 	"/>
	<polygon class="st1" points="385.7,454 370.9,454 378.8,442 393.5,442 	"/>
	<polygon class="st1" points="447,454 428.3,454 436.1,442 447,442 	"/>
	<circle class="st1" cx="361.1" cy="442" r="8.7"/>
	<polygon class="st1" points="433,420.5 443.4,417.4 442.3,413.6 442.3,413.6 440,405.9 422.1,411.3 429.4,417.4 416,421.4 
		408.7,415.3 394.6,419.5 401.9,425.6 388.5,429.6 381.2,423.5 367.1,427.7 378,436.9 382.1,435.7 382.1,435.7 405.5,428.7 
		405.5,428.7 419.7,424.5 419.7,424.5 	"/>
</g>
</svg>
