<?xml version="1.0" encoding="utf-8"?>
<!-- Generator: Adobe Illustrator 19.0.0, SVG Export Plug-In . SVG Version: 6.00 Build 0)  -->
<svg version="1.1" id="Layer_1" xmlns="http://www.w3.org/2000/svg" xmlns:xlink="http://www.w3.org/1999/xlink" x="0px" y="0px"
	 viewBox="-446 320 130 130" style="enable-background:new -446 320 130 130;" xml:space="preserve">
<style type="text/css">
	.st0{fill:#FFFFFF;}
	.st1{fill:#808080;}
	.st2{fill:#A6A6A6;}
</style>
<circle class="st0" cx="-381" cy="385" r="62.5"/>
<g>
	<g>
		<path class="st1" d="M-384.9,349.6c0.2,0.2,0.3,0.4,0.5,0.6c1.3-3.7,0.9-5.1,0.6-5.5c-0.1-0.2-0.4-0.6-1.7-0.6s-2.9,0.5-4.3,1.1
			C-388,346.4-386.4,347.9-384.9,349.6z"/>
		<path class="st1" d="M-415.1,349.6c-0.2,0.2-0.3,0.4-0.5,0.6c-1.3-3.7-0.9-5.1-0.6-5.5c0.1-0.2,0.4-0.6,1.7-0.6s2.9,0.5,4.3,1.1
			C-412,346.4-413.6,347.9-415.1,349.6z"/>
		<path class="st2" d="M-400,343.7c-7.2,0-14.1,4.9-18,12.9v20.1h36v-20.1C-385.9,348.6-392.8,343.7-400,343.7z M-400,368.5
			c-4.9,0-8.9-4-8.9-8.9s4-8.9,8.9-8.9s8.9,4,8.9,8.9S-395.1,368.5-400,368.5z"/>
		<g>
			<path class="st1" d="M-400,351.3c-4.5,0-8.2,3.7-8.2,8.2s3.7,8.2,8.2,8.2s8.2-3.7,8.2-8.2S-395.5,351.3-400,351.3 M-400,369.8
				c-5.7,0-10.3-4.6-10.3-10.3s4.6-10.3,10.3-10.3s10.3,4.6,10.3,10.3S-394.3,369.8-400,369.8"/>
			<path class="st1" d="M-400,357.1c-0.8,0-1.5,0.4-1.9,1c0.5,0.1,0.8,0.3,0.8,0.6c0,0.3-0.5,0.6-1.3,0.7v0.1c0,1.3,1,2.3,2.3,2.3
				c1.3,0,2.3-1,2.3-2.3C-397.7,358.2-398.7,357.1-400,357.1z"/>
		</g>
	</g>
	<path class="st2" d="M-344.2,357H-373c-0.8,0-1.5-0.7-1.5-1.5s0.7-1.5,1.5-1.5h28.8c0.8,0,1.5,0.7,1.5,1.5S-343.4,357-344.2,357z"
		/>
	<path class="st2" d="M-344.2,368H-373c-0.8,0-1.5-0.7-1.5-1.5s0.7-1.5,1.5-1.5h28.8c0.8,0,1.5,0.7,1.5,1.5S-343.4,368-344.2,368z"
		/>
	<path class="st2" d="M-344.2,391H-415c-0.8,0-1.5-0.7-1.5-1.5s0.7-1.5,1.5-1.5h70.8c0.8,0,1.5,0.7,1.5,1.5S-343.4,391-344.2,391z"
		/>
	<path class="st2" d="M-344.2,402H-415c-0.8,0-1.5-0.7-1.5-1.5s0.7-1.5,1.5-1.5h70.8c0.8,0,1.5,0.7,1.5,1.5S-343.4,402-344.2,402z"
		/>
	<path class="st2" d="M-344.2,413H-415c-0.8,0-1.5-0.7-1.5-1.5s0.7-1.5,1.5-1.5h70.8c0.8,0,1.5,0.7,1.5,1.5S-343.4,413-344.2,413z"
		/>
	<path class="st2" d="M-344.2,424H-415c-0.8,0-1.5-0.7-1.5-1.5s0.7-1.5,1.5-1.5h70.8c0.8,0,1.5,0.7,1.5,1.5S-343.4,424-344.2,424z"
		/>
	<path class="st2" d="M-381,448.5c-35,0-63.5-28.5-63.5-63.5s28.5-63.5,63.5-63.5s63.5,28.5,63.5,63.5S-346,448.5-381,448.5z
		 M-381,323.5c-33.9,0-61.5,27.6-61.5,61.5s27.6,61.5,61.5,61.5s61.5-27.6,61.5-61.5S-347.1,323.5-381,323.5z"/>
</g>
</svg>
