<?xml version="1.0" encoding="utf-8"?>
<!-- Generator: Adobe Illustrator 22.0.1, SVG Export Plug-In . SVG Version: 6.00 Build 0)  -->
<svg version="1.1" id="Layer_1" xmlns="http://www.w3.org/2000/svg" xmlns:xlink="http://www.w3.org/1999/xlink" x="0px" y="0px"
	 viewBox="0 0 130 130" style="enable-background:new 0 0 130 130;" xml:space="preserve">
<style type="text/css">
	.st0{fill:#FFFFFF;}
	.st1{fill:#A6A6A6;}
	.st2{fill:#808080;}
</style>
<circle class="st0" cx="65" cy="65" r="62.5"/>
<path class="st1" d="M65,128.5C30,128.5,1.5,100,1.5,65S30,1.5,65,1.5S128.5,30,128.5,65S100,128.5,65,128.5z M65,3.5
	C31.1,3.5,3.5,31.1,3.5,65s27.6,61.5,61.5,61.5s61.5-27.6,61.5-61.5S98.9,3.5,65,3.5z"/>
<path class="st1" d="M32,36v62h26V81h13v17h27V36H32z M44,91h-7v-5h7V91z M44,84h-7v-5h7V84z M44,73h-7v-5h7V73z M44,66h-7v-5h7V66z
	 M44,55h-7v-5h7V55z M44,48h-7v-5h7V48z M53,91h-7v-5h7V91z M53,84h-7v-5h7V84z M53,73h-7v-5h7V73z M53,66h-7v-5h7V66z M53,55h-7v-5
	h7V55z M53,48h-7v-5h7V48z M64,73h-7v-5h7V73z M64,66h-7v-5h7V66z M64,55h-7v-5h7V55z M64,48h-7v-5h7V48z M73,73h-7v-5h7V73z M73,66
	h-7v-5h7V66z M73,55h-7v-5h7V55z M73,48h-7v-5h7V48z M84,91h-7v-5h7V91z M84,84h-7v-5h7V84z M84,73h-7v-5h7V73z M84,66h-7v-5h7V66z
	 M84,55h-7v-5h7V55z M84,48h-7v-5h7V48z M93,91h-7v-5h7V91z M93,84h-7v-5h7V84z M93,73h-7v-5h7V73z M93,66h-7v-5h7V66z M93,55h-7v-5
	h7V55z M93,48h-7v-5h7V48z"/>
<rect x="29" y="33" class="st2" width="72" height="4"/>
<rect x="45.8" y="29.8" class="st2" width="38.3" height="5"/>
</svg>
